<svg xmlns="http://www.w3.org/2000/svg" xmlns:xlink="http://www.w3.org/1999/xlink" width="1080" zoomAndPan="magnify" viewBox="0 0 810 809.999993" height="1080" preserveAspectRatio="xMidYMid meet" version="1.2"><defs><clipPath id="8cf111b960"><path d="M 38.226562 652 L 146 652 L 146 743 L 38.226562 743 Z M 38.226562 652 "/></clipPath><clipPath id="c178d722aa"><path d="M 664 606 L 771.726562 606 L 771.726562 697 L 664 697 Z M 664 606 "/></clipPath></defs><g id="0fd4e9a78c"><rect x="0" width="810" y="0" height="809.999993" style="fill:#ffffff;fill-opacity:1;stroke:none;"/><rect x="0" width="810" y="0" height="809.999993" style="fill:#ffffff;fill-opacity:1;stroke:none;"/><path style=" stroke:none;fill-rule:evenodd;fill:#f22510;fill-opacity:1;" d="M 217.148438 0.304688 L 222.464844 0.304688 L 222.464844 461.546875 L 217.148438 461.546875 Z M 217.148438 0.304688 "/><path style=" stroke:none;fill-rule:evenodd;fill:#f22510;fill-opacity:1;" d="M 621.664062 0.304688 L 626.980469 0.304688 L 626.980469 461.546875 L 621.664062 461.546875 Z M 621.664062 0.304688 "/><path style=" stroke:none;fill-rule:evenodd;fill:#f22510;fill-opacity:1;" d="M 511.957031 583.441406 C 515.019531 581.335938 518.570312 579.945312 522.253906 579.625 L 553.179688 576.917969 C 557.011719 576.582031 560.488281 577.390625 563.308594 579.101562 C 566.425781 576.902344 570.070312 575.453125 573.847656 575.117188 L 604.773438 572.410156 C 615.144531 571.507812 622.847656 579.289062 621.945312 589.738281 L 609.507812 733.074219 C 608.585938 743.519531 599.398438 752.769531 589.046875 753.667969 L 556.617188 756.507812 C 553.085938 756.828125 549.875 756.167969 547.1875 754.742188 C 544.257812 756.65625 540.910156 757.898438 537.4375 758.199219 L 506.511719 760.90625 C 502.789062 761.222656 499.425781 760.433594 496.664062 758.800781 C 491.292969 763.910156 485.222656 768.160156 478.683594 771.636719 C 478.570312 771.691406 478.476562 771.75 478.347656 771.804688 C 467.863281 777.179688 456.796875 779.867188 445.824219 780.824219 C 435.207031 781.765625 424.855469 780.9375 415.40625 777.667969 C 405.878906 774.378906 397.949219 768.761719 392.3125 760.640625 C 391.074219 758.835938 389.945312 756.976562 388.949219 755.042969 C 384.140625 759.683594 378.691406 763.535156 372.832031 766.65625 C 372.699219 766.710938 372.605469 766.769531 372.472656 766.84375 C 363.398438 771.484375 353.816406 773.835938 344.308594 774.660156 C 335.121094 775.46875 326.160156 774.753906 317.988281 771.917969 C 313.871094 770.507812 310.097656 768.589844 306.734375 766.148438 C 301.191406 772.894531 294.050781 778.175781 286.402344 782.308594 C 275.394531 788.570312 263.613281 791.746094 251.871094 792.777344 C 239.132812 793.886719 226.808594 792.496094 216.058594 787.367188 C 205.953125 782.554688 197.890625 775.039062 194.507812 763.910156 C 194.453125 763.78125 194.433594 763.667969 194.398438 763.515625 C 191.597656 753.425781 191.710938 741.546875 192.648438 730.554688 L 193.550781 720.253906 C 194.246094 712.34375 199.675781 705.109375 206.777344 701.667969 C 203.714844 697.703125 201.5 693.0625 199.863281 688.136719 C 197.082031 679.71875 196.765625 670.171875 197.570312 660.792969 C 198.585938 649.179688 200.933594 636.0625 207.285156 625.160156 C 213.335938 614.789062 222.316406 606.96875 232.78125 601.539062 C 232.949219 601.445312 233.121094 601.371094 233.289062 601.277344 C 243.734375 596.164062 254.652344 593.457031 265.53125 592.5 C 269.550781 592.140625 273.550781 592.046875 277.515625 592.179688 C 279.769531 592.253906 282.007812 592.425781 284.222656 592.6875 L 285.390625 579.117188 C 284.9375 579.382812 284.488281 579.625 284.035156 579.871094 C 283.90625 579.925781 283.8125 579.984375 283.699219 580.039062 C 274.699219 584.644531 265.210938 586.972656 255.777344 587.800781 C 246.683594 588.589844 237.816406 587.875 229.699219 585.074219 C 223.855469 583.066406 218.710938 580.039062 214.460938 575.941406 C 209.558594 582.558594 203.339844 588.25 196.539062 593.136719 C 184.214844 601.972656 170.421875 606.21875 156.558594 607.441406 C 143.253906 608.605469 130.066406 607.421875 118.941406 601.800781 C 108.140625 596.371094 100.566406 587.539062 97.5625 575.398438 C 94.59375 563.519531 95.269531 548.335938 96.378906 535.519531 L 100.34375 489.851562 C 101.132812 480.773438 102.089844 471.113281 104.0625 462 C 106.035156 452.828125 110.542969 444.21875 116.460938 436.363281 C 123.226562 427.34375 131.960938 420.464844 141.769531 415.503906 C 151.785156 410.449219 162.363281 407.835938 172.828125 406.933594 C 186.410156 405.730469 199.734375 407.105469 210.929688 413.082031 C 217.824219 416.765625 223.648438 421.707031 227.613281 428.152344 C 232.273438 423.71875 237.554688 420.015625 243.285156 417.0625 C 252.285156 412.421875 261.828125 410.09375 271.261719 409.265625 C 280.128906 408.476562 288.714844 409.207031 296.773438 411.59375 C 296.980469 411.652344 297.167969 411.707031 297.375 411.785156 C 298.222656 412.066406 299.03125 412.386719 299.835938 412.703125 L 301.078125 398.460938 C 301.980469 388.011719 311.1875 378.765625 321.539062 377.84375 L 386.546875 372.167969 C 391.222656 371.753906 395.359375 373.050781 398.402344 375.605469 C 401.953125 372.488281 406.367188 370.417969 411.027344 370.023438 L 476.484375 364.292969 C 486.855469 363.390625 494.558594 371.171875 493.660156 381.601562 L 492.511719 394.777344 L 510.15625 393.214844 L 510.230469 392.371094 C 511.152344 381.921875 520.339844 372.65625 530.710938 371.753906 L 567.421875 368.539062 C 572.136719 368.125 576.308594 369.421875 579.371094 372.035156 C 582.902344 368.898438 587.320312 366.792969 591.976562 366.398438 L 628.710938 363.183594 C 638.027344 362.355469 645.207031 368.578125 645.902344 377.429688 C 650.015625 374.195312 654.449219 371.492188 659.089844 369.292969 C 663.46875 367.242188 667.957031 365.609375 672.488281 364.40625 C 677.410156 363.109375 682.386719 362.339844 687.3125 361.90625 C 701.101562 360.703125 714.554688 362.246094 725.734375 368.652344 C 735.464844 374.214844 743.148438 382.242188 746.402344 393.480469 C 746.4375 393.628906 746.476562 393.761719 746.511719 393.929688 C 749.273438 404.566406 748.992188 417.328125 747.980469 428.828125 L 747.394531 435.574219 C 747.171875 438.246094 746.402344 440.835938 745.199219 443.242188 C 745.988281 445.460938 746.324219 447.941406 746.101562 450.609375 L 738.828125 534.316406 C 737.925781 544.765625 728.71875 554.027344 718.367188 554.929688 L 693.058594 557.148438 C 690.46875 557.375 688.023438 557.09375 685.84375 556.339844 C 678.835938 560.269531 671.320312 562.390625 663.789062 563.050781 C 653.8125 563.914062 644.546875 562.148438 636.261719 557.976562 C 634.214844 556.960938 632.261719 555.816406 630.402344 554.554688 C 627.902344 563.351562 619.730469 570.546875 610.636719 571.355469 L 572.136719 574.71875 C 567.835938 575.097656 563.984375 574.042969 561.015625 571.882812 C 557.652344 574.570312 553.613281 576.335938 549.367188 576.710938 L 512.636719 579.925781 C 510.8125 580.09375 509.066406 579.984375 507.449219 579.625 C 509.046875 580.789062 510.550781 582.070312 511.957031 583.441406 Z M 499.183594 574.851562 C 496.476562 571.75 495.03125 567.464844 495.460938 562.617188 L 495.539062 561.753906 L 477.894531 563.292969 L 477.3125 569.910156 C 483.023438 570.285156 488.585938 571.242188 493.960938 572.824219 C 494.167969 572.898438 494.355469 572.953125 494.5625 573.03125 C 496.15625 573.574219 497.699219 574.175781 499.183594 574.851562 Z M 405.992188 600.261719 C 405.277344 600.035156 404.582031 599.773438 403.925781 599.453125 C 401.765625 600.75 399.414062 601.671875 396.972656 602.140625 C 398.703125 603.363281 400.335938 604.714844 401.839844 606.199219 C 403.003906 604.339844 404.28125 602.515625 405.617188 600.730469 C 405.746094 600.5625 405.859375 600.410156 405.992188 600.261719 Z M 318.570312 610.917969 C 319.378906 610.222656 320.203125 609.542969 321.050781 608.90625 L 317.40625 609.226562 C 317.800781 609.769531 318.195312 610.332031 318.570312 610.917969 Z M 318.570312 610.917969 "/><path style=" stroke:none;fill-rule:nonzero;fill:#ffd21c;fill-opacity:1;" d="M 213.203125 492.96875 L 173.054688 496.484375 L 175.402344 469.402344 C 176.117188 461.246094 176.097656 456.25 175.382812 454.480469 C 174.480469 452.773438 172.675781 452.058594 169.839844 452.300781 C 166.441406 452.601562 164.277344 453.957031 163.28125 456.398438 C 162.0625 458.917969 161.105469 464.105469 160.425781 471.867188 L 154.132812 544.351562 C 153.476562 551.886719 153.570312 556.773438 154.378906 559.046875 C 154.960938 561.320312 156.78125 562.296875 159.957031 562.035156 C 163.078125 561.753906 165.199219 560.417969 166.382812 557.996094 C 167.453125 555.890625 168.375 550.441406 169.144531 541.699219 L 170.835938 522.117188 L 210.988281 518.605469 L 210.480469 524.503906 C 209.089844 540.554688 206.984375 552.132812 204.128906 559.199219 C 201.273438 566.019531 195.730469 572.390625 187.464844 578.273438 C 179.460938 584.0625 169.691406 587.460938 158.210938 588.457031 C 146.488281 589.492188 136.941406 588.175781 129.59375 584.472656 C 122.269531 580.773438 117.722656 575.226562 115.9375 567.878906 C 114.09375 560.644531 113.851562 549.3125 115.183594 533.882812 L 119.148438 488.214844 C 120.105469 477.144531 121.234375 468.691406 122.492188 462.863281 C 123.675781 457.414062 126.4375 451.8125 130.777344 446.082031 C 135.007812 440.425781 140.679688 435.800781 147.765625 432.25 C 154.566406 428.792969 162.363281 426.667969 171.191406 425.898438 C 183.03125 424.84375 192.628906 426.3125 199.957031 430.257812 C 207.398438 434.183594 211.925781 439.464844 213.597656 446.082031 C 215.496094 452.546875 215.796875 463.21875 214.5 478.140625 Z M 213.203125 492.96875 "/><path style=" stroke:none;fill-rule:nonzero;fill:#ffd21c;fill-opacity:1;" d="M 302.675781 506.425781 C 302.074219 513.25 301.527344 518.886719 301.039062 523.285156 C 300.550781 527.664062 299.96875 531.703125 299.347656 535.332031 C 298.183594 540.949219 295.796875 546.285156 292.132812 551.398438 C 288.394531 556.226562 283.585938 560.175781 277.609375 563.351562 C 271.75 566.339844 265.042969 568.179688 257.433594 568.839844 C 250.253906 569.457031 243.921875 568.839844 238.472656 566.941406 C 232.96875 565.042969 228.703125 561.921875 225.640625 557.5625 C 222.542969 553.035156 220.886719 548.035156 220.699219 542.527344 C 220.53125 537.039062 221.039062 527.34375 222.242188 513.453125 L 224.234375 490.488281 C 225.417969 476.863281 226.601562 467.242188 227.726562 461.546875 C 228.722656 456.023438 231.128906 450.722656 235.015625 445.648438 C 238.625 440.78125 243.433594 436.835938 249.445312 433.714844 C 255.269531 430.726562 262.015625 428.886719 269.605469 428.226562 C 276.464844 427.625 282.796875 428.207031 288.660156 429.9375 C 294.332031 431.875 298.558594 435.070312 301.414062 439.503906 C 304.589844 443.902344 306.167969 448.882812 306.207031 454.367188 C 306.375 459.875 305.867188 469.574219 304.667969 483.441406 Z M 271.785156 465.289062 C 272.351562 458.859375 272.332031 454.839844 271.765625 453.242188 C 271.242188 451.625 269.925781 450.910156 267.765625 451.117188 C 265.886719 451.269531 264.476562 452.039062 263.558594 453.449219 C 262.316406 455.066406 261.394531 459.3125 260.796875 466.246094 L 255.308594 529.261719 C 254.632812 537.152344 254.613281 541.964844 255.214844 543.65625 C 255.570312 545.402344 256.867188 546.15625 259.21875 545.96875 C 261.585938 545.761719 263.179688 544.539062 264.046875 542.320312 C 264.910156 540.292969 265.71875 535.253906 266.414062 527.210938 Z M 271.785156 465.289062 "/><path style=" stroke:none;fill-rule:nonzero;fill:#ffd21c;fill-opacity:1;" d="M 474.851562 383.253906 L 457.921875 578.105469 L 414.183594 581.9375 L 425.605469 450.347656 L 396.503906 583.476562 L 365.222656 586.222656 L 357.875 459.5 L 346.734375 587.839844 L 302.976562 591.671875 L 319.902344 396.804688 L 384.910156 391.128906 C 385.117188 394.191406 385.382812 398.628906 385.777344 404.285156 C 386.132812 410 386.414062 414.621094 386.640625 418.117188 C 386.867188 421.632812 387.109375 426.253906 387.371094 431.988281 L 389.851562 481.1875 L 409.394531 388.988281 Z M 474.851562 383.253906 "/><path style=" stroke:none;fill-rule:nonzero;fill:#ffd21c;fill-opacity:1;" d="M 516.730469 411.464844 L 505.402344 542.078125 L 471.808594 545.007812 L 483.15625 414.414062 Z M 516.730469 411.464844 "/><path style=" stroke:none;fill-rule:nonzero;fill:#ffd21c;fill-opacity:1;" d="M 627.054688 382.148438 L 612.289062 552.394531 L 573.773438 555.757812 L 557.707031 480.527344 L 551 557.75 L 514.269531 560.964844 L 529.054688 390.714844 L 565.789062 387.503906 L 583.691406 461.980469 L 590.34375 385.359375 Z M 627.054688 382.148438 "/><path style=" stroke:none;fill-rule:nonzero;fill:#ffd21c;fill-opacity:1;" d="M 728.589844 437.230469 L 688.457031 440.742188 L 689.679688 426.78125 C 690.28125 417.496094 690.28125 411.933594 689.695312 410.128906 C 689.097656 407.96875 687.367188 407.011719 684.511719 407.253906 C 682.011719 407.480469 680.304688 408.515625 679.363281 410.394531 C 678.160156 412.648438 677.203125 417.722656 676.527344 425.558594 L 670.042969 500.335938 C 669.441406 507.214844 669.554688 511.820312 670.363281 514.09375 C 670.964844 516.238281 672.601562 517.15625 675.363281 516.914062 C 678.234375 516.667969 680.414062 515.242188 681.824219 512.628906 C 683.082031 509.847656 684.023438 504.941406 684.625 497.949219 L 686.238281 479.363281 L 677.992188 480.097656 L 680.039062 456.398438 L 727.273438 452.265625 L 720.023438 535.96875 L 694.714844 538.1875 L 691.78125 527.25 C 688.71875 532.304688 685.039062 536.230469 680.679688 539.050781 C 676.320312 541.890625 671.210938 543.582031 665.441406 544.085938 C 658.847656 544.652344 652.683594 543.503906 646.914062 540.628906 C 641.242188 537.734375 637.050781 534.050781 634.382812 529.578125 C 631.792969 524.523438 630.382812 519.523438 630.082031 514.640625 C 629.78125 509.453125 630.101562 501.464844 631.039062 490.660156 L 635.058594 444.296875 C 636.355469 429.394531 638.027344 418.550781 640.152344 411.726562 C 642.539062 404.699219 647.761719 398.027344 655.746094 391.710938 C 658.527344 389.550781 661.476562 387.746094 664.519531 386.320312 C 667.582031 384.871094 670.832031 383.667969 674.214844 382.785156 C 677.636719 381.863281 681.449219 381.246094 685.65625 380.867188 C 697.4375 379.835938 707.019531 381.414062 714.367188 385.605469 C 721.710938 389.832031 726.316406 395.152344 728.175781 401.597656 C 729.921875 408.34375 730.261719 417.984375 729.171875 430.484375 Z M 728.589844 437.230469 "/><path style=" stroke:none;fill-rule:nonzero;fill:#fefefe;fill-opacity:1;" d="M 304.515625 658.105469 L 267.164062 661.375 L 268.179688 649.722656 C 268.648438 644.332031 268.421875 640.910156 267.445312 639.539062 C 266.542969 638.203125 265.042969 637.660156 262.917969 637.847656 C 260.4375 638.054688 258.523438 639.164062 257.226562 641.210938 C 255.683594 643.296875 254.765625 646.417969 254.40625 650.53125 C 253.976562 655.476562 254.351562 659.289062 255.570312 661.957031 C 256.8125 664.628906 260.304688 667.523438 266.132812 670.640625 C 283.132812 679.757812 293.636719 687.5 297.714844 693.886719 C 301.699219 700.558594 303.011719 711.496094 301.699219 726.664062 C 300.738281 737.640625 298.804688 745.90625 295.855469 751.472656 C 292.847656 756.957031 287.4375 761.808594 279.621094 765.980469 C 272.085938 770.320312 263.367188 772.953125 253.523438 773.816406 C 242.945312 774.738281 233.890625 773.441406 226.414062 769.886719 C 219.066406 766.375 214.5 761.621094 212.660156 755.566406 C 210.875 749.160156 210.480469 740.289062 211.476562 728.898438 L 212.359375 718.601562 L 249.804688 715.332031 L 248.167969 734.3125 C 247.679688 739.914062 247.867188 743.617188 248.714844 745.457031 C 249.484375 747.035156 251.269531 747.730469 254.179688 747.46875 C 256.980469 747.222656 259.140625 746.019531 260.589844 743.839844 C 261.921875 741.566406 262.785156 738.316406 263.144531 734.144531 C 263.953125 724.898438 263.21875 719.015625 260.984375 716.535156 C 258.839844 713.921875 253.015625 709.730469 243.453125 703.941406 C 234.191406 698.304688 228.007812 694.019531 224.929688 691.125 C 221.976562 688.570312 219.648438 684.660156 217.902344 679.4375 C 216.191406 674.191406 215.683594 667.445312 216.398438 659.160156 C 217.414062 647.375 219.667969 638.523438 223.179688 632.527344 C 226.5625 626.683594 231.84375 621.871094 239 618.152344 C 246.476562 614.488281 254.78125 612.269531 263.875 611.460938 C 267.277344 611.179688 270.527344 611.085938 273.644531 611.199219 C 276.765625 611.292969 279.808594 611.648438 282.703125 612.214844 C 285.632812 612.796875 288.132812 613.492188 290.238281 614.316406 C 297.1875 616.96875 301.660156 620.839844 303.613281 625.894531 C 305.566406 630.6875 305.980469 639.292969 304.890625 651.773438 Z M 304.515625 658.105469 "/><path style=" stroke:none;fill-rule:nonzero;fill:#fefefe;fill-opacity:1;" d="M 391.789062 692.460938 C 391.1875 699.375 390.640625 705.089844 390.132812 709.542969 C 389.644531 713.976562 389.0625 718.074219 388.425781 721.757812 C 387.242188 727.433594 384.816406 732.847656 381.117188 738.035156 C 377.339844 742.921875 372.453125 746.921875 366.40625 750.136719 C 360.46875 753.179688 353.667969 755.023438 345.945312 755.699219 C 338.691406 756.339844 332.265625 755.699219 326.742188 753.78125 C 321.164062 751.867188 316.839844 748.707031 313.742188 744.273438 C 310.585938 739.6875 308.929688 734.632812 308.742188 729.050781 C 308.574219 723.488281 309.082031 713.660156 310.300781 699.601562 L 312.3125 676.316406 C 313.515625 662.503906 314.699219 652.769531 315.863281 647 C 316.859375 641.398438 319.300781 636.023438 323.246094 630.875 C 326.910156 625.949219 331.757812 621.949219 337.863281 618.789062 C 343.765625 615.746094 350.605469 613.90625 358.289062 613.226562 C 365.238281 612.609375 371.664062 613.191406 377.601562 614.976562 C 383.332031 616.929688 387.617188 620.164062 390.527344 624.652344 C 393.742188 629.109375 395.359375 634.144531 395.375 639.726562 C 395.546875 645.289062 395.039062 655.117188 393.816406 669.175781 Z M 360.503906 650.777344 C 361.070312 644.273438 361.050781 640.175781 360.488281 638.582031 C 359.941406 636.925781 358.625 636.210938 356.410156 636.417969 C 354.53125 636.570312 353.101562 637.359375 352.164062 638.785156 C 350.90625 640.402344 349.964844 644.726562 349.363281 651.753906 L 343.820312 715.59375 C 343.125 723.601562 343.089844 728.46875 343.707031 730.195312 C 344.066406 731.964844 345.378906 732.734375 347.765625 732.527344 C 350.171875 732.320312 351.769531 731.082031 352.652344 728.84375 C 353.535156 726.777344 354.34375 721.683594 355.054688 713.527344 Z M 360.503906 650.777344 "/><path style=" stroke:none;fill-rule:nonzero;fill:#fefefe;fill-opacity:1;" d="M 503.054688 685.167969 C 502.339844 693.550781 501.664062 700.484375 501.0625 705.878906 C 500.441406 711.273438 499.746094 716.214844 498.976562 720.6875 C 497.546875 727.585938 494.617188 734.164062 490.109375 740.4375 C 485.523438 746.359375 479.605469 751.207031 472.277344 755.117188 C 465.082031 758.800781 456.832031 761.054688 447.457031 761.863281 C 438.664062 762.632812 430.867188 761.863281 424.160156 759.53125 C 417.414062 757.203125 412.171875 753.367188 408.398438 748.011719 C 404.582031 742.449219 402.574219 736.304688 402.328125 729.539062 C 402.121094 722.792969 402.742188 710.878906 404.226562 693.8125 L 406.6875 665.566406 C 408.132812 648.824219 409.582031 637.019531 410.972656 630.027344 C 412.171875 623.226562 415.160156 616.722656 419.933594 610.484375 C 424.367188 604.507812 430.265625 599.660156 437.652344 595.808594 C 444.828125 592.140625 453.09375 589.886719 462.433594 589.058594 C 470.847656 588.328125 478.648438 589.042969 485.863281 591.183594 C 492.8125 593.550781 498 597.460938 501.53125 602.929688 C 505.421875 608.34375 507.375 614.449219 507.410156 621.195312 C 507.617188 627.941406 507 639.875 505.515625 656.921875 Z M 465.117188 634.613281 C 465.796875 626.722656 465.777344 621.761719 465.101562 619.804688 C 464.441406 617.8125 462.828125 616.949219 460.160156 617.195312 C 457.867188 617.382812 456.136719 618.339844 454.992188 620.070312 C 453.46875 622.042969 452.324219 627.265625 451.589844 635.796875 L 444.863281 713.226562 C 444.039062 722.941406 444 728.84375 444.753906 730.929688 C 445.183594 733.074219 446.78125 734.011719 449.65625 733.75 C 452.570312 733.503906 454.523438 732 455.59375 729.277344 C 456.664062 726.796875 457.660156 720.59375 458.503906 710.707031 L 465.121094 634.613281 Z M 465.117188 634.613281 "/><path style=" stroke:none;fill-rule:nonzero;fill:#fefefe;fill-opacity:1;" d="M 603.121094 591.371094 L 590.683594 734.707031 L 558.253906 737.546875 L 544.726562 674.210938 L 539.089844 739.238281 L 508.164062 741.941406 L 520.601562 598.589844 L 551.527344 595.882812 L 566.59375 658.59375 L 572.195312 594.078125 Z M 603.121094 591.371094 "/><path style=" stroke:none;fill-rule:evenodd;fill:#f22510;fill-opacity:1;" d="M 151.953125 747.597656 L 160.238281 674.851562 L 123.753906 747.789062 Z M 151.953125 747.597656 "/><g clip-rule="nonzero" clip-path="url(#8cf111b960)"><path style=" stroke:none;fill-rule:evenodd;fill:#f22510;fill-opacity:1;" d="M 145.640625 652.335938 L 67.78125 742.523438 L 38.226562 721.683594 Z M 145.640625 652.335938 "/></g><path style=" stroke:none;fill-rule:evenodd;fill:#f22510;fill-opacity:1;" d="M 124.449219 637.300781 L 63.347656 665.378906 L 53.765625 646.660156 Z M 124.449219 637.300781 "/><path style=" stroke:none;fill-rule:evenodd;fill:#f22510;fill-opacity:1;" d="M 657.980469 701.292969 L 649.679688 628.542969 L 686.183594 701.480469 Z M 657.980469 701.292969 "/><g clip-rule="nonzero" clip-path="url(#c178d722aa)"><path style=" stroke:none;fill-rule:evenodd;fill:#f22510;fill-opacity:1;" d="M 664.277344 606.03125 L 742.15625 696.21875 L 771.707031 675.378906 Z M 664.277344 606.03125 "/></g><path style=" stroke:none;fill-rule:evenodd;fill:#f22510;fill-opacity:1;" d="M 685.46875 590.996094 L 746.589844 619.074219 L 756.152344 600.355469 Z M 685.46875 590.996094 "/><path style=" stroke:none;fill-rule:evenodd;fill:#f22510;fill-opacity:1;" d="M 726.558594 332.984375 L 676.074219 338.734375 L 726.691406 313.382812 Z M 726.558594 332.984375 "/><path style=" stroke:none;fill-rule:evenodd;fill:#f22510;fill-opacity:1;" d="M 660.445312 328.605469 L 723.046875 274.519531 L 708.578125 253.996094 Z M 660.445312 328.605469 "/><path style=" stroke:none;fill-rule:evenodd;fill:#f22510;fill-opacity:1;" d="M 649.996094 313.871094 L 669.5 271.4375 L 656.496094 264.785156 Z M 649.996094 313.871094 "/><path style=" stroke:none;fill-rule:evenodd;fill:#f22510;fill-opacity:1;" d="M 117.664062 376.773438 L 168.148438 382.542969 L 117.515625 357.1875 Z M 117.664062 376.773438 "/><path style=" stroke:none;fill-rule:evenodd;fill:#f22510;fill-opacity:1;" d="M 183.78125 372.410156 L 121.179688 318.324219 L 135.644531 297.804688 Z M 183.78125 372.410156 "/><path style=" stroke:none;fill-rule:evenodd;fill:#f22510;fill-opacity:1;" d="M 194.226562 357.679688 L 174.726562 315.242188 L 187.726562 308.589844 Z M 194.226562 357.679688 "/></g></svg>